<svg class="logo"  viewBox="0 0 137 105" fill="none" xmlns="http://www.w3.org/2000/svg">
  <path d="M28.9 5.4C28.7 5.7 28.2 6.4 28 7C27.6 8 27.4 10.4 27.3 11.4C27.7 11.2 28.3 10.4 28.4 10C28.6 9.1 28.8 7.1 29 6.3C29 6 29.3 5.6 29.3 5.4C29.4 5.1 29.1 5 28.9 5.4Z" fill="#1D1D1B"></path>
  <path d="M3 15.6L3.8 16L4.3 14.7L3.3 14.2L2.8 15.4L2 15L1.5 16.2L2.5 16.8L3 15.6Z" fill="#1D1D1B"></path>
  <path d="M22 8.69998L22.5 9.39998L23.5 8.29998L22.8 7.59998L21.9 8.49998L21.3 7.89998L20.5 8.99998L21.1 9.79998L22 8.69998Z" fill="#1D1D1B"></path>
  <path d="M22.9 7.19999L22 6.29999L21.2 7.19999L22 8.09999L22.9 7.19999Z" fill="#1D1D1B"></path>
  <path d="M8.10005 13.6C8.50005 13.4 8.50005 12.8 8.70005 12.6C8.80005 12.5 8.80005 13.1 9.40005 12.8C9.90005 12.6 9.80005 11.8 9.60005 11.4C9.60005 11.3 9.50005 11.2 9.50005 11.3C9.10005 11.5 9.30005 12.3 9.00005 12.4C8.90005 12.5 8.70005 11.9 8.50005 11.9C8.10005 12.1 8.20005 12.9 7.70005 13C7.50005 12.9 7.40005 12.3 7.30005 12.3C7.10005 12.6 7.20005 13 7.20005 13.4C7.50005 13.7 7.80005 13.7 8.10005 13.6Z" fill="#1D1D1B"></path>
  <path d="M26.2 6.99997C26 7.19997 25.9 7.79997 25.4 9.99997C25.4 10.2 25.2 10.3 24.9 10.4C24.6 10.5 24.3 10.4 24.1 10.1H24C23.8 10.2 23.4 10.7 23.2 10.8C23 10.9 22.8 10.8 22.7 10.6C22.6 10.5 22.6 10.3 22.4 10.3C21.9 10.6 21.7 11.1 21.2 11.3C21.1 11.3 21 11.2 20.9 11.1C20.6 10.7 20.5 10.7 20.2 11C20.1 11.1 19.5 11.7 19.1 11.8C18.6 12.1 18.1 12.2 17.6 11.9C17.7 11.7 17.8 11.5 17.8 11.3C17.8 11 17.8 11 17.8 10.7C17.6 10.2 17.1 9.89997 16.6 9.79997C16.4 9.79997 16.1 9.79997 15.7 9.89997C14.9 10.2 14.7 10.5 14.5 10.9C14.4 11.2 14.4 11.4 14.7 11.5C15.2 11.6 15.4 11.6 15.6 11.9C15.7 12 15.5 12.2 15.3 12.3C14.9 12.4 14.5 12 14.1 12.2C13.6 12.4 13.7 12.7 13.4 13.3C13.4 13.4 12.9 14 12.6 14C12.1 14.1 12 13.3 11.6 13.4C11.4 13.5 11.2 13.6 11.1 13.6C10.3 14.5 8.90001 15.5 7.50001 16.3C6.00001 17.2 4.40001 17.7 2.60001 17.7C2.50001 17.7 2.30001 17.7 2.20001 17.9C1.80001 19.1 1.60001 19.9 1.40001 20.8C1.30001 21 1.60001 21.1 1.70001 20.9C1.90001 20.7 2.30001 19.9 2.50001 19.4C5.60001 19 7.40001 18.1 8.70001 17.1C10 16.2 10.7 15.3 11.5 14.7C11.8 14.4 12.4 15 12.9 14.9C13.4 14.8 13.9 13.4 14.3 13.3C14.5 13.2 15.1 13.6 15.5 13.4C16.1 13.2 16.1 12.7 16.4 12.7C16.5 12.7 16.5 12.7 16.7 12.9C16.9 13.1 17.1 13.2 17.4 13.2C17.8 13.3 18.1 13.1 18.4 12.9C18.6 12.8 19.5 12.2 19.8 12C19.9 12 20.2 12.4 20.6 12.3C20.7 12.3 20.7 12.3 20.7 12.2C21.1 11.9 21.9 11.2 22.1 11.1C22.1 11.1 22.7 11.5 22.8 11.5C22.9 11.5 23 11.5 23.1 11.4C23.3 11.3 23.5 10.9 23.6 10.8C24 11 24.3 11.1 24.6 11.1C25.2 11.1 26.2 10.4 26.3 9.49997C26.3 9.39997 26.8 6.69997 26.9 6.29997C27.1 6.19997 26.5 6.59997 26.2 6.99997Z" fill="#1D1D1B"></path>
  <path d="M14.9 16.6L15.7 17.5L16.5 16.6L15.7 15.8L14.9 16.6Z" fill="#1D1D1B"></path>
  <path d="M10.2 19.4L9.50002 19C9.30002 19.5 9.10002 20 8.90002 20.5L9.80002 21C10 20.6 10.2 20.2 10.4 19.8L11.2 20.2L11.8 19L10.8 18.4L10.2 19.4Z" fill="#1D1D1B"></path>
  <path d="M114.1 15.7L113.8 14.9L112.8 15.3L113.1 16.4L114.1 15.9L114.4 16.8L115.5 16.2L115.1 15.1L114.1 15.7Z" fill="#1D1D1B"></path>
  <path d="M131.4 20.2C131.8 20.2 132.3 20.1 132.7 19.8C133.3 19.6 135.6 17.3 136.4 16.6C135.9 16.5 135.3 16.8 135 16.9C134.3 17.1 132 19.5 131.4 20.2Z" fill="#1D1D1B"></path>
  <path d="M129.3 18.8L129.2 20L130.3 19.9V18.8H129.3Z" fill="#1D1D1B"></path>
  <path d="M131.5 15.5C131.6 15.4 131.8 15.4 131.9 15.5C132.7 16 134.4 16.4 135.7 16.1C135.9 16 136.1 15.8 136.1 15.7C136.2 15.6 136 15.5 135.8 15.6C135.6 15.6 135.5 15.6 135.4 15.6C135.1 15.6 134.7 15.4 134.4 15.4C134 15.3 133.4 15 133 14.8C132.7 14.7 132.4 14.4 131.7 14.2C131.3 14.1 129.6 14.5 129.4 15C129.3 15.2 130.4 15.5 130.7 15.9L130 16C130 16 130 16 130 16.1V16C129.3 16 128.5 16.2 127.9 16.2C127.5 16.3 126.8 16.3 126.3 16.3C126.8 15.4 126.9 14.8 126.5 14.6C126.1 14.5 125.2 14.4 124.5 14.6H124.3C124.5 14 124.6 13.3 124 13C123.6 12.9 122.7 13 122.5 13.2C121.9 13.5 121.6 13.9 121.4 14.3C121.3 14.6 121.4 15 121.9 15.4C121.3 15.7 120.2 15.9 119.6 15.8C119.3 15.8 118.6 15.5 118.4 15.6C118.1 15.9 119.8 16.8 120.1 16.9C120.5 17 120.6 16.8 122.9 15.8C123.2 15.6 124.6 15 124.9 15.4C125 15.5 124.8 15.8 124.7 16.3C124.4 16.5 123.9 16.7 123.6 16.9C123.5 16.9 123.2 17.2 123.3 17.3C123.3 17.4 123.4 17.4 123.7 17.5C123.9 17.6 124.6 17.5 125.3 17.5C126.4 17.3 127.1 17 127.3 17.3C127.4 17.5 127.5 17.6 127.6 17.9C127.9 18.7 129.1 18.7 129.1 17.9C129.2 17.7 128.9 17.4 128.8 17.2C128.8 17.1 129.2 17.1 129.4 17.1C130.1 17.1 131.2 17 131.3 17.1C131.5 17.1 132.3 17 132.6 17C132.8 17 132 16.3 131.8 16.1L131.5 15.5Z" fill="#1D1D1B"></path>
  <path d="M120.5 12.1C120 12.5 119.4 12.9 118.9 13.2C118.3 13.6 116.8 13.9 115.5 14.1C115.3 14.1 115.2 14.2 115.7 14.4C116.6 14.8 117.3 14.9 118.1 14.7C118.7 14.5 118.6 14.3 120.7 12.3C121.1 12 120.8 11.7 120.5 12.1Z" fill="#1D1D1B"></path>
  <path d="M117.4 12.4C117.9 12.3 118.3 12 118.1 11.9C117.9 11.8 116.8 12.4 116.5 12.4C116.2 12.5 116 12.3 115.9 12.1C115.8 12 115.6 11.5 115.3 11.3C115 11.1 114.2 11.4 113.7 11.8L112.8 12.5V12.7C113 13.1 114.2 12.2 114.4 12.6C114.6 13.1 114.7 13.3 114.9 13.5C115.3 13.8 116.9 12.8 117.4 12.4Z" fill="#1D1D1B"></path>
  <path d="M115.8 9.40001L116.1 10.3L117.2 9.60001L116.8 8.50001L115.8 9.10001L115.5 8.20001L114.5 8.80001L114.9 9.90001L115.8 9.40001Z" fill="#1D1D1B"></path>
  <path d="M106.3 11.5L106.6 12.6C107.1 12.4 107.5 12.3 108 12.1L107.7 11.1C107.2 11.2 106.7 11.4 106.3 11.5Z" fill="#1D1D1B"></path>
  <path d="M114 6.79999C113.3 7.39999 110.9 10.2 110 11C110.6 10.9 111 10.6 111.5 10.3C112.4 9.79999 115.6 6.09999 115.6 5.79999C114.9 5.99999 114.3 6.59999 114 6.79999Z" fill="#1D1D1B"></path>
  <path d="M83.3 8.99998L82.6 8.09998L81.6 8.59998L82.5 9.79998L83.5 9.19998L84.2 9.99998C84.5 9.79998 84.9 9.59997 85.2 9.39997L84.4 8.19998L83.3 8.99998Z" fill="#1D1D1B"></path>
  <path d="M108.7 7.69998H108.2C108.3 7.59998 108.5 7.59998 108.7 7.49998C109.8 7.49998 112 6.89999 113.2 5.89999C113.1 5.69999 113.3 5.49999 113.3 5.39999C113.4 5.19999 113.1 5.39999 112.9 5.39999L112.4 5.59998L111.2 5.99998C110.7 6.09999 110 6.19999 109.4 6.29999C108.9 6.29999 108.5 6.29999 107.8 6.39999C107.3 6.49999 105.6 7.59998 105.6 8.19998C105.6 8.39998 106.9 8.19999 107.4 8.49998C107.1 8.59998 106.8 8.69999 106.5 8.79999C106.5 8.79999 105.9 8.99999 105.9 9.09999C104.3 9.49999 102.8 9.59998 101.3 9.39998C99.8 9.19998 98.3 8.59999 96.7 7.39999C96.6 7.29999 96.5 7.19999 96.3 7.39999C94.1 9.29998 93.6 9.09999 91 8.79999C90.8 8.79999 90.8 8.89999 91 9.09999C91.7 9.49999 92.4 9.89999 93.1 10.3C93.4 10.5 93.9 10.6 94.3 10.2C94.8 9.79998 95.4 9.29998 95.9 8.89998C97.1 9.69998 98.3 10.2 99.5 10.5C100.1 10.6 100.7 10.7 101.3 10.8C101.9 10.8 102.5 10.9 103.2 10.8C104 10.6 104.9 10.4 105.7 10.2C106.1 10.1 106.4 9.99998 106.6 9.89998C106.8 9.79998 107 9.79999 107 9.79999C107.1 9.69999 109.7 8.49999 109.8 8.29999C110.1 7.89999 109 7.79998 108.7 7.69998Z" fill="#1D1D1B"></path>
  <path d="M83.7999 5.29996C83.6999 5.29996 83.1999 5.99996 82.9999 6.19996C82.8999 6.19996 82.8999 6.29996 82.9999 6.49996C83.3999 6.79996 84.0999 5.69996 84.5999 5.99996C85.1999 6.49996 85.3999 6.69996 85.6999 6.89996C85.7999 6.89996 85.8999 6.99996 85.9999 6.99996C86.6999 6.89996 87.5999 6.19996 87.9999 5.69996C88.2999 5.29996 88.5999 5.09996 88.2999 4.89996C88.0999 4.69996 87.0999 5.49996 86.7999 5.59996C86.5999 5.69996 86.1999 5.49996 85.9999 5.29996C85.7999 5.09996 85.4999 4.79996 85.0999 4.79996C84.4999 4.49996 84.0999 4.99996 83.7999 5.29996Z" fill="#1D1D1B"></path>
  <path d="M92 6.29999C92 6.19999 92.1 6.09999 92.1 5.89999C92.1 5.79999 92.2 5.59999 92.1 5.69999C92 5.59999 91.9 5.69999 91.8 5.79999C91.5 6.29999 91.3 6.49999 90.6 6.39999C90.2 6.39999 90 6.19999 89.7 6.49999C89.3 6.89999 88.9 7.19999 88.5 7.39999C88.2 7.69999 87.7 7.89999 86.8 7.69999C85.5 7.49999 85.3 7.39999 85.2 7.59999C85.3 7.69999 85.4 7.89999 85.5 7.99999C86.9 8.69999 87 8.89999 87.5 8.79999C88.3 8.69999 88.5 7.99999 89 7.69999C89.5 7.39999 90.3 7.59999 90.9 7.39999C91.2 7.19999 91.7 6.89999 92 6.29999Z" fill="#1D1D1B"></path>
  <path d="M83.8 1.89999L84.4 2.69999L85.3 1.99999L84.5 0.899988L83.6 1.69999L83 0.799988L82 1.49999L82.8 2.59999L83.8 1.89999Z" fill="#1D1D1B"></path>
  <path d="M93.8999 6.89996C94.2999 6.19996 94.4999 5.59996 94.7999 4.99996C94.8999 4.79996 95.0999 4.49996 95.1999 4.29996C95.2999 4.09996 95.1999 3.99996 94.8999 4.09996C94.5999 4.19996 94.2999 4.39996 94.1999 4.69996C93.3999 6.09996 93.0999 6.89996 92.7999 7.59996C93.1999 7.69996 93.7999 7.19996 93.8999 6.89996Z" fill="#1D1D1B"></path>
  <path d="M97.3 5.49996L96.9 4.39996C96.6 4.49996 96.2 4.69996 95.9 4.79996L96.2 5.79996C96.6 5.79996 97 5.69996 97.3 5.49996Z" fill="#1D1D1B"></path>
  <path d="M92.5 4.5C92.6 4.2 92.4 4.1 92.1 4.1L91.8 4C91.5 3.9 91.6 3.7 91.8 3.8C91.9 3.8 92.5 4 92.6 3.5C92.5 3.4 91.9 3.3 91.8 3.4C91.5 3.5 91.3 3.6 91.2 3.8C91.1 4.1 91.2 4.3 91.5 4.4C91.6 4.4 92 4.4 91.9 4.5C91.8 4.7 91.1 4.5 91 4.6L90.7 4.8V4.9C92 4.9 92.4 5 92.5 4.5Z" fill="#1D1D1B"></path>
  <path d="M35.4 3.7L34.6 2.7L33.6 3.4L32.9 2.5L31.9 3.3L32.9 4.3L33.7 3.6L34.4 4.4L35.4 3.7Z" fill="#1D1D1B"></path>
  <path d="M47.6 5.79997C46.7 6.99997 44.4001 7.29997 43.9001 5.89997C43.0001 6.49997 42.3 6.89997 41.5 7.29997C40.7 7.69997 40.0001 7.99997 39.2001 8.19997C37.6001 8.59997 35.9 8.39997 33.5 7.59997C33 7.99997 32.9001 8.49997 32.7001 8.99997C32.7001 9.09997 32.3 8.99997 32.3 8.89997C32.7 7.89997 32.8 6.99997 33.3 6.09997H33.4001L33.6 6.19997C36.3 7.19997 38.3 7.19997 40 6.79997C40.8 6.59997 41.6 6.29997 42.2001 5.89997C42.9001 5.49997 43.5 4.99997 44 4.59997C44.1 5.29997 45.3 5.79997 45.5 4.99997C45.3 4.29997 45.2001 3.39997 45.2001 2.79997C45.2001 2.09997 45.3 1.99997 45.6 1.29997C45.7 1.19997 45.9001 1.29997 45.9001 1.49997V3.69997C45.8001 3.89997 45.8 4.09997 45.8 4.59997C46.3 3.39997 46.9001 2.99997 47.7001 2.99997C48.8001 2.99997 48.4 4.89997 47.6 5.79997ZM47.8 4.09997C47.6 3.79997 47.1001 3.79997 46.9001 3.99997C46.5001 4.39997 46.2001 5.09997 45.9001 5.69997C46.4001 5.49997 47.1001 5.29997 47.4001 4.99997C47.8001 4.89997 47.9 4.29997 47.8 4.09997Z" fill="#1D1D1B"></path>
  <path d="M43.1 8.8L42.3 8.2L41.5 9.3L42.6 10.1L43.3 9.1L44.1 9.8L44.8 8.8L43.9 8L43.1 8.8Z" fill="#1D1D1B"></path>
  <path d="M50.1 5.09998C50.5 4.89998 50.7 4.29998 50.6 3.89998L50.4 1.89998C50.4 1.69998 50.4 1.39998 50.5 1.19998C50.6 0.999984 50.3 0.899984 50.1 1.09998C49.9 1.29998 49.6 1.99998 49.6 2.39998C49.7 3.29998 49.9 4.09998 50.1 5.09998Z" fill="#1D1D1B"></path>
  <path d="M71 2.79998C70.7 2.79998 70.1 2.99998 69.7 3.39998C69.5 3.59998 69.4 3.79998 69.4 3.89998C69.4 4.09998 69.6 4.09998 69.7 4.29998C69.8 4.49998 69.9 4.79998 69.8 4.99998C69.6 5.29998 69.2 5.69998 68.6 5.79998C67.8 5.99998 67.7 4.99998 67.4 4.99998C67.1 4.89998 66.8 5.09998 66.5 5.29998C66 5.69998 63.8 6.39998 62.4 6.79998C61.3 7.09998 60.1 7.29998 58.8 7.19998C57.1 7.19998 54.9 7.19998 51.9 5.99998C51.4 6.59998 50.5 7.69998 50.1 7.69998C49.2 7.59998 48.3 7.39998 47.5 6.99998L47.7 6.79998C50.5 6.99998 50.5 6.39998 52.3 4.49998C52.4 4.29998 52.6 4.19998 52.8 4.39998C55.6 5.99998 58.8 6.09998 61.4 5.79998C61.9 5.79998 62.4 5.69998 62.8 5.49998C62.5 5.09998 62.7 4.59998 62.9 4.19998C63.2 3.79998 63.8 3.19998 64.5 2.99998C64.7 2.99998 64.9 2.89998 65 2.89998C65.4 2.89998 65.7 3.19998 65.8 3.49998C65.9 3.59998 65.9 3.79998 65.8 3.89998L65.4 4.79998C65.5 4.79998 65.8 4.69998 65.9 4.69998C66.5 4.49998 67.3 3.99998 67.7 3.99998C68.2 3.29998 69.1 2.79998 70 2.29998C70.6 1.99998 71 1.79998 71.6 1.69998C71.8 1.59998 72.1 1.79998 72.5 1.89998C72.6 1.99998 72.6 2.19998 72.6 2.39998C72.4 2.79998 72.1 2.99998 71.9 3.09998C71.5 3.29998 71.4 2.79998 71 2.79998ZM64.4 4.29998C64.1 4.29998 63.8 4.59998 63.9 4.79998C63.9 4.99998 64.6 5.09998 64.9 4.99998C64.9 4.79998 64.7 4.29998 64.4 4.29998Z" fill="#1D1D1B"></path>
  <path d="M60 2.49998L60.5 3.09998C60.8 2.79998 61.1 2.49998 61.4 2.19998L60.7 1.59998C60.4 1.89998 60.1 2.09998 59.9 2.39998L59.4 1.79998C59.1 2.09998 58.8 2.39998 58.5 2.69998L59.1 3.49998C59.4 3.09998 59.7 2.79998 60 2.49998Z" fill="#1D1D1B"></path>
  <path d="M67.6 8.10001L67 7.60001C66.7 7.90001 66.3 8.30001 66 8.60001L66.7 9.20001C67 8.90001 67.4 8.50001 67.7 8.20001L68.3 8.80001L69.3 7.90001L68.7 7.20001C68.3 7.40001 67.9 7.70001 67.6 8.10001Z" fill="#1D1D1B"></path>
  <path d="M79.4 0C79.2 0.1 78.3 0.8 78.2 1C77.7 2.1 77.1 3.2 76.5 4.2C76.3 4.5 75.6 4.7 75.4 4.7C75.2 4.7 74.7 4.7 74.9 4.1C75 3.5 75.9 2.5 75.7 2.4H75.6C75.5 2.4 75.3 2.7 74.9 3C74.5 3.4 74.1 3.8 73.7 4.1C73 4.7 71.9 4.8 71.2 4.8H71.1C71 4.9 71.1 5 71.2 5.1C71.2 5.3 71.8 5.5 72.2 5.5C72.5 5.5 73.1 5 74 4.3C73.4 5.2 73.1 6.2 74.1 6.3C74.7 6.4 75.4 5.9 76 5.4C76.6 4.9 77.1 4.2 77.4 3.8C77.8 3.2 78.8 1.2 79.3 0.4C79.4 0.3 79.5 0.1 79.4 0Z" fill="#1D1D1B"></path>
  <path d="M80.6 0.900018C80.2 1.10002 79.9 1.50002 79.7 1.80002C78.9 3.80002 78.5 4.50002 77.9 5.60002C78.4 5.40002 79.1 4.80002 79.4 4.30002C80 3.50002 80.2 2.90002 80.6 2.00002C80.8 1.70002 80.9 1.30002 81 1.10002C81.1 0.800018 80.9 0.800018 80.6 0.900018Z" fill="#1D1D1B"></path>
  <path d="M131.1 83.3L131.6 84.4L128 86C126.8 86.5 125.5 86.9 124.3 87.4L120.6 88.7C119.4 89.2 118.1 89.5 116.8 89.9L115.6 86C115 86.2 114.6 86.8 114.8 87.5L115.6 90.2L115.9 91.3L117.1 91C118.4 90.6 119.7 90.3 120.9 89.8L124.7 88.5C126 88 127.2 87.6 128.5 87.1L132.2 85.5L133.3 85L132.8 83.9L131.8 81.8C131.2 82 130.9 82.7 131.1 83.3Z" fill="#1B1C27"></path>
  <path d="M134 80.8C133.4 81.1 133.1 81.8 133.4 82.3L134.4 84.4C134.7 85 134.4 85.7 133.7 86L134.2 87.1C135.5 86.5 136.1 85.1 135.5 84L135 82.9L134 80.8Z" fill="#1B1C27"></path>
  <path d="M30.6 91.1L30.1 93.4C30 94 29.3001 94.4 28.6 94.3L28.3 95.4C29.7 95.7 31.0001 94.9 31.2001 93.7L31.4 92.5L31.9 90.2C31.4 90 30.8001 90.4 30.6 91.1Z" fill="#1B1C27"></path>
  <path d="M28.5 89.4L28 91.7L27.7 92.8C27.5 93.5 27 94 26.3 94.1H26.2C25.9 94.1 25.6 94.3 25.5 94.5H25.3C25.2 94.2 25 94 24.8 93.9L24.7 93.8C24.2 93.4 23.9 92.7 24.1 92L19.2 90.6C17.6 90.1 15.9 89.7 14.3 89.1C11 88 7.7 87 4.6 85.6L3.4 85.1L2.2 84.6L0.2 83.8L0 83.7L0.5 82.6C1 81.4 2.5 80.9 3.7 81.4L4.8 81.9C5.2 82 5.7 82 6 81.7L6.1 81.8L5 84.5C8.3 85.9 11.8 87 15.1 88.2C16.8 88.8 18.6 89.2 20.3 89.7C22 90.2 23.7 90.7 25.5 91.1L25.2 92.2C25.1 92.5 25.3 92.8 25.6 92.9H25.7C26 93 26.3 92.8 26.4 92.5L27 90.2C27.2 89.6 27.8 89.2 28.5 89.4ZM4.3 83L3.2 82.5C2.6 82.2 1.9 82.5 1.6 83.1L3.9 84L4.3 83Z" fill="#1B1C27"></path>
  <path d="M90 91.9C90.3 91.9 90.6 91.6 90.5 91.2C90.5 90.9 90.2 90.6 89.8 90.7C89.5 90.7 89.2 91 89.3 91.4C89.3 91.7 89.6 91.9 90 91.9Z" fill="#1B1C27"></path>
  <path d="M92.1 91.7C92.4 91.7 92.7 91.4 92.6 91C92.6 90.7 92.3 90.4 91.9 90.5C91.6 90.5 91.3 90.8 91.4 91.2C91.5 91.5 91.8 91.7 92.1 91.7Z" fill="#1B1C27"></path>
  <path d="M113.6 88.2L114.2 90.5L114.5 91.6L113.3 91.9L112.1 92.2C111.7 92.3 111.3 92.4 110.9 92.5L109.7 92.8L108.5 93.1L107.3 93.4C105.1 93.9 102.9 94.4 100.7 94.8C98.5 95.2 96.2 95.6 94 95.9H93.7L92.8 96L91.6 96.1L89.5 96.4H89.2L89 95.3C88.9 94 89.8 92.8 91.2 92.7L92.4 92.6C92.8 92.5 93.2 92.3 93.4 91.9H93.6L93.7 92.5L94 94.8C98.8 94 103.7 93.3 108.4 92.1L108.1 91C108 90.4 108.4 89.7 109 89.6L109.6 91.9L110.8 91.6L110.5 90.5C110.3 89.9 110.7 89.3 111.4 89.1L112 91.4L113.2 91.1L112.9 90C112.6 89.1 113 88.4 113.6 88.2ZM91.3 93.9C90.6 94 90.1 94.6 90.2 95.2L92.6 94.9L92.4 93.7L91.3 93.9Z" fill="#1B1C27"></path>
  <path d="M85.0999 93.4L84.9999 91.7C84.2999 91.7 83.7999 92.3 83.8999 93L84.1999 97L85.3999 96.9L85.3 95.7L85.0999 93.4Z" fill="#1B1C27"></path>
  <path d="M82.6 91.9L82.9 95.9L83 97.1C83.1 97.8 82.7 98.4 82.1 98.7H82C81.7 98.8 81.5 99 81.4 99.3H81.2C81 99.1 80.8 98.9 80.5 98.8H80.4C79.8 98.6 79.3 98 79.3 97.3C78.1 97.4 76.8 97.5 75.6 97.5C71.8 97.6 68 97.7 64.1 97.5H64C63.6 98.2 62.7 98.6 61.8 98.6C60.9 98.6 60.1 98.1 59.7 97.4C57.9 97.3 56.1 97.1 54.3 97C52.5 96.8 50.7 96.8 48.9 96.5L47.7 96.3L42.6 95.7C40.9 95.5 39.2 95.1 37.5 94.9C37.3 96.2 36 97 34.7 96.8L33.5 96.6L33.7 95.4L34.9 95.6C35.6 95.7 36.2 95.3 36.3 94.7L35 94.4L32.9 94C32.8 93.6 32.7 93.2 32.8 92.8C33.1 91.5 34.3 90.7 35.7 90.9L36.9 91.1C37.3 91.2 37.8 91 38 90.7H38.2L38 91.3L37.6 93.6C39.7 94 41.9 94.4 44 94.6C44.2 93.3 45.4 92.4 46.7 92.6L47.9 92.8C48 92.2 48.6 91.7 49.2 91.8L49.1 93L50.3 93.2C51.6 93.3 52.6 94.4 52.5 95.7L59.3 96.2C59.4 94.9 60.5 93.9 61.9 93.9C63.3 93.9 64.3 95 64.3 96.3C68 96.5 71.7 96.3 75.5 96.3C76.7 96.3 78 96.2 79.2 96.1C79.2 95.5 78.6 95 77.9 95C77.5 95 77.1 95.1 76.7 95.1H75.5L75.4 93.3H75.6C75.8 93.6 76.2 93.9 76.7 93.9C77.1 93.9 77.5 93.9 77.9 93.8C79.2 93.7 80.4 94.7 80.5 96L80.6 97.2C80.6 97.5 80.9 97.7 81.2 97.7H81.3C81.6 97.7 81.9 97.4 81.8 97.1L81.5 93.1C81.4 92.5 81.9 91.9 82.6 91.9ZM36.6 92.3L35.4 92.1C34.7 92 34.1 92.4 34 93L36.4 93.4L36.6 92.3ZM47.8 94L46.6 93.8C45.9 93.7 45.3 94.2 45.2 94.8L47.6 95.1L47.8 94ZM51.4 95.5C51.5 94.8 51 94.3 50.3 94.2L49 94.1L48.9 95.3C49.7 95.4 50.5 95.5 51.4 95.5ZM63.1 96.3C63.1 95.7 62.6 95.1 61.9 95.1C61.2 95.1 60.7 95.6 60.6 96.2C60.6 96.8 61.1 97.4 61.8 97.4C62.5 97.4 63.1 96.9 63.1 96.3Z" fill="#1B1C27"></path>
  <path d="M24.3 94.6C24 94.5 23.6 94.7 23.5 95C23.4 95.3 23.6 95.6 24 95.7C24.3 95.8 24.7 95.6 24.8 95.3C24.9 94.9 24.7 94.6 24.3 94.6Z" fill="#1B1C27"></path>
  <path d="M26.5 95.1C26.2 95 25.8 95.2 25.7 95.5C25.6 95.8 25.8 96.1 26.2 96.2C26.5 96.3 26.9 96.1 27 95.8C27.1 95.5 26.9 95.1 26.5 95.1Z" fill="#1B1C27"></path>
  <path d="M76.4 98.6C76.1 98.6 75.8 98.9 75.8 99.2C75.8 99.5 76.1 99.8 76.4 99.8C76.7 99.8 77 99.5 77 99.2C77 98.9 76.8 98.6 76.4 98.6Z" fill="#1B1C27"></path>
  <path d="M2.99998 80.2C3.29998 80.3 3.69998 80.2 3.79998 79.9C3.89998 79.6 3.79998 79.3 3.49998 79.1C3.19998 79 2.79998 79.1 2.69998 79.4C2.59998 79.7 2.69998 80 2.99998 80.2Z" fill="#1B1C27"></path>
  <path d="M4.99998 81C5.29998 81.1 5.69998 81 5.79998 80.7C5.89998 80.4 5.79998 80.1 5.49998 79.9C5.19998 79.8 4.79998 79.9 4.69998 80.2C4.59998 80.5 4.69998 80.8 4.99998 81Z" fill="#1B1C27"></path>
  <path d="M131 81.3C131.3 81.2 131.5 80.8 131.3 80.5L130.1 81C130 80.7 130.1 80.3 130.4 80.2L131 79.9L130.7 79.3L130.6 79H130.5C130.5 79.2 130.3 79.4 130.1 79.5C129.5 79.8 129.2 80.5 129.4 81.2L128.8 81.5L129 82.1L129.8 81.8L131 81.3Z" fill="#1B1C27"></path>
  <path d="M134.5 71.9H0.599976V87.9H134.5V71.9Z" fill="url(#paint0_radial)"></path>
  <path d="M101.3 71.9V78.9H33.9V71.9H0.599976V79.7V87.6V104.7H134.6V87.6V79.7V71.9H101.3Z" fill="url(#paint1_radial)"></path>
  <path d="M33.6 34.4H0.599976V71.7H33.6V34.4Z" fill="url(#paint2_linear)"></path>
  <path d="M134.6 71.7H101.6V34.4H134.6V71.7Z" fill="url(#paint3_linear)"></path>
  <path d="M101.1 29.9H98.6V32.7H84V78.5H101.1V29.9Z" fill="url(#paint4_linear)"></path>
  <path d="M34.1 78.5H51.2V32.7H36.5V29.9H34.1V78.5Z" fill="url(#paint5_linear)"></path>
  <path d="M86.6999 73.6V54.2C86.6999 54.2 86.8999 54.2 86.9999 54.2C87.1999 54.2 87.2999 54.1 87.2999 53.9C87.2999 53.7 87.1999 53.6 86.9999 53.6C86.8999 53.6 86.6999 53.6 86.6999 53.6C86.1999 53.5 85.7999 53.1 85.7999 52.5C85.7999 52 86.1999 51.6 86.6999 51.4V50.1H87.3999C86.5999 49.4 85.9999 48 85.9999 46.8C85.9999 43.7 88.1999 41.1 91.0999 40.6C93.9999 41.1 96.1999 43.7 96.1999 46.8C96.1999 48 95.5999 49.4 94.7999 50.1H95.4999V51.4C95.9999 51.5 96.3999 51.9 96.3999 52.5C96.3999 53 95.9999 53.4 95.4999 53.6C95.4999 53.6 95.2999 53.6 95.1999 53.6C94.9999 53.6 94.8999 53.7 94.8999 53.9C94.8999 54.1 94.9999 54.2 95.1999 54.2C95.2999 54.2 95.4999 54.2 95.4999 54.2V73.6H86.6999Z" fill="url(#paint6_linear)"></path>
  <path d="M39.6999 73.6V54.2C39.6999 54.2 39.8999 54.2 39.9999 54.2C40.1999 54.2 40.2999 54.1 40.2999 53.9C40.2999 53.7 40.1999 53.6 39.9999 53.6C39.8999 53.6 39.6999 53.6 39.6999 53.6C39.1999 53.5 38.7999 53.1 38.7999 52.5C38.7999 52 39.1999 51.6 39.6999 51.4V50.1H40.3999C39.5999 49.4 38.9999 48 38.9999 46.8C38.9999 43.7 41.1999 41.1 44.0999 40.6C46.9999 41.1 49.1999 43.7 49.1999 46.8C49.1999 48 48.5999 49.4 47.7999 50.1H48.4999V51.4C48.9999 51.5 49.3999 51.9 49.3999 52.5C49.3999 53 48.9999 53.4 48.4999 53.6C48.4999 53.6 48.2999 53.6 48.1999 53.6C47.9999 53.6 47.8999 53.7 47.8999 53.9C47.8999 54.1 47.9999 54.2 48.1999 54.2C48.2999 54.2 48.3999 54.2 48.4999 54.2V73.6H39.6999Z" fill="url(#paint7_linear)"></path>
  <path d="M91.4999 57.3C91.2999 57.3 91.1999 57.2 91.1999 57C91.1999 56.9 91.2999 56.7001 91.4999 56.7001C91.5999 56.7001 91.6999 56.7001 91.6999 56.7001C92.0999 56.6 92.3999 56.2 92.3999 55.8C92.3999 55.4 92.0999 55.0001 91.6999 54.9001V53.8H91.0999C91.7999 53.2 92.1999 52 92.1999 51C92.1999 48.4 90.2999 46.2 87.8999 45.8C86.1999 46.1 84.7999 47.2001 84.0999 48.7001C84.2999 49.2001 84.6999 49.7 84.9999 50.1H84.2999V51.4001C83.8999 51.5001 83.5999 51.7 83.4999 52.1L83.2999 52.5L83.4999 52.9001C83.5999 53.2001 83.8999 53.5 84.2999 53.6C84.2999 53.6 84.4999 53.6 84.5999 53.6C84.7999 53.6 84.8999 53.7001 84.8999 53.9001C84.8999 54.1001 84.7999 54.2001 84.5999 54.2001C84.4999 54.2001 84.3999 54.2001 84.2999 54.2001V71.9001H91.4999V57.3C91.5999 57.3 91.6999 57.3 91.4999 57.3Z" fill="url(#paint8_linear)"></path>
  <path d="M91.8999 72H84.4999V54.1H84.8999C84.9999 54.1 85.0999 54 85.0999 53.9C85.0999 53.8 84.9999 53.7 84.8999 53.7C84.7999 53.7 84.5999 53.7 84.5999 53.7C84.1999 53.6 83.7999 53.3 83.6999 52.9L83.3999 52.4L83.6999 52C83.7999 51.7 84.0999 51.4 84.4999 51.3V50H84.9999C84.6999 49.7 84.4999 49.3 84.2999 48.8V48.7V48.6C84.9999 47 86.4999 45.9 88.1999 45.6C90.6999 46 92.5999 48.3 92.5999 50.9C92.5999 51.9 92.1999 52.9 91.5999 53.6H91.9999V54.7C92.3999 54.8 92.6999 55.2 92.6999 55.7C92.6999 56.2 92.3999 56.6 91.8999 56.7C91.8999 56.7 91.6999 56.7 91.5999 56.7C91.4999 56.7 91.3999 56.8 91.3999 56.8C91.3999 56.8 91.4999 56.9 91.5999 56.9H91.9999V72H91.8999ZM84.6999 71.7H91.5999V57.4H91.4999C91.2999 57.4 91.0999 57.2 91.0999 57C91.0999 56.8 91.2999 56.6 91.4999 56.6C91.5999 56.6 91.6999 56.6 91.6999 56.6C92.0999 56.5 92.2999 56.2 92.2999 55.8C92.2999 55.4 91.9999 55.1 91.6999 55H91.5999V54H90.8999L91.0999 53.8C91.6999 53.2 92.1999 52.1 92.1999 51.1C92.1999 48.6 90.3999 46.5 87.9999 46C86.3999 46.3 85.0999 47.3 84.3999 48.8C84.5999 49.3 84.8999 49.8 85.2999 50.1L85.4999 50.3H84.6999V51.5H84.5999C84.2999 51.6 83.9999 51.8 83.8999 52.1L83.6999 52.4L83.8999 52.7C83.9999 53 84.2999 53.2 84.5999 53.3C84.5999 53.3 84.6999 53.3 84.8999 53.3C85.0999 53.3 85.3999 53.5 85.3999 53.7C85.3999 53.9 85.1999 54.1 84.8999 54.1H84.7999V71.7H84.6999Z" fill="#1B1C27"></path>
  <path d="M43.5 57.3C43.7 57.3 43.8 57.2 43.8 57C43.8 56.9 43.7 56.7001 43.5 56.7001C43.4 56.7001 43.3 56.7001 43.3 56.7001C42.9 56.6 42.6 56.2 42.6 55.8C42.6 55.4 42.9 55.0001 43.3 54.9001V53.8H43.9C43.2 53.2 42.8 52 42.8 51C42.8 48.4 44.7 46.2 47.1 45.8C48.8 46.1 50.2 47.2001 50.9 48.7001C50.7 49.2001 50.3 49.7 50 50.1H50.7V51.4001C51.1 51.5001 51.4 51.7 51.5 52.1L51.7 52.5L51.5 52.9001C51.4 53.2001 51.1 53.5 50.7 53.6C50.7 53.6 50.5 53.6 50.4 53.6C50.2 53.6 50.1 53.7001 50.1 53.9001C50.1 54.1001 50.2 54.2001 50.4 54.2001C50.5 54.2001 50.6 54.2001 50.7 54.2001V71.9001H43.5V57.3C43.4 57.3 43.2 57.3 43.5 57.3Z" fill="url(#paint9_linear)"></path>
  <path d="M50.5 72H43.1V57.2H43.5C43.6 57.2 43.7 57.1 43.7 57.1C43.7 57.1 43.6 57 43.5 57C43.4 57 43.2 57 43.2 57C42.7 56.9 42.4 56.5 42.4 56C42.4 55.6 42.7 55.2 43.1 55V53.9H43.5C42.9 53.2 42.5 52.2 42.5 51.2C42.5 48.6 44.4 46.3 46.9 45.9C48.6 46.2 50 47.3 50.8 48.9V49V49.1C50.6 49.6 50.3 50 50.1 50.3H50.6V51.6C51 51.7 51.2 52 51.4 52.3L51.7 52.7L51.4 53.2C51.3 53.6 50.9 53.9 50.5 54C50.5 54 50.3 54 50.2 54C50.1 54 50 54.1 50 54.2C50 54.3 50.1 54.4 50.2 54.4H50.6V72H50.5ZM43.4 71.7H50.3V54.3H50.2C50 54.3 49.7 54.1 49.7 53.9C49.7 53.7 49.9 53.5 50.2 53.5C50.3 53.5 50.5 53.5 50.5 53.5C50.8 53.4 51.1 53.2 51.2 52.9L51.4 52.5L51.2 52.2C51.1 51.9 50.8 51.7 50.5 51.6H50.4V50.4H49.5L49.7 50.2C50 49.9 50.3 49.5 50.6 48.9C49.9 47.4 48.5 46.4 47 46.1C44.6 46.5 42.8 48.6 42.8 51.2C42.8 52.2 43.3 53.3 43.9 53.9L44.1 54.1H43.4V55.1H43.3C42.9 55.2 42.7 55.5 42.7 55.9C42.7 56.3 43 56.6 43.3 56.7C43.3 56.7 43.4 56.7 43.5 56.7C43.7 56.7 43.9 56.9 43.9 57.1C43.9 57.3 43.7 57.5 43.5 57.5H43.4V71.7Z" fill="#1B1C27"></path>
  <path d="M128.2 39.8H104.2V69.8H128.2V39.8Z" fill="url(#paint10_linear)"></path>
  <path d="M129.5 39.8H103.1L105.1 38.1H127.4L129.5 39.8Z" fill="url(#paint11_linear)"></path>
  <path d="M125.4 62.7V61.8V53.8V53.1H124.2C124.6 52.4 124.9 51.7 124.9 50.8C124.9 49.4 124.2 48.1 123.1 47.3C122.1 46.6 120.6 46.6 119.6 47.3C118.5 48.1 117.8 49.3 117.8 50.8C117.8 51.6 118.1 52.4 118.5 53.1H117V62.6H125.4V62.7Z" fill="url(#paint12_linear)"></path>
  <path d="M113.8 53.2C114.2 52.5 114.5 51.8 114.5 50.9C114.5 49.5 113.8 48.2 112.7 47.4C111.7 46.7 110.2 46.7 109.2 47.4C108.1 48.2 107.4 49.4 107.4 50.9C107.4 51.7 107.7 52.5 108.1 53.2H107V62.7H115.3V53.2H113.8Z" fill="url(#paint13_linear)"></path>
  <path d="M126.6 69.7V44.9H116.7V51.6H115.6V44.9H105.8V69.7H104.2V71.8H128.2V69.7H126.6ZM107 69.7V53.2H108.2C107.8 52.5 107.5 51.8 107.5 50.9C107.5 49.5 108.2 48.2 109.3 47.4C110.3 46.7 111.8 46.7 112.8 47.4C113.9 48.2 114.6 49.4 114.6 50.9C114.6 51.7 114.3 52.5 113.9 53.2H115.4V69.8H107V69.7ZM117.1 69.7V53.2H118.6C118.2 52.5 117.9 51.8 117.9 50.9C117.9 49.5 118.6 48.2 119.7 47.4C120.7 46.7 122.2 46.7 123.2 47.4C124.3 48.2 125 49.4 125 50.9C125 51.7 124.7 52.5 124.3 53.2H125.5V53.9V69.8H117.1V69.7Z" fill="url(#paint14_linear)"></path>
  <path d="M101.3 33.9L134.6 34.1L101.3 34.4V33.9Z" fill="#1B1C27"></path>
  <path d="M134.6 71.9L101.3 72.1V71.6L134.6 71.9Z" fill="#1B1C27"></path>
  <path d="M128.3 69.9H104V39.6H128.3V69.9ZM104.3 69.6H128V39.9H104.4V69.6H104.3Z" fill="#1B1C27"></path>
  <path d="M129.5 39.8H103.1L105.1 38.1H127.4L129.5 39.8Z" fill="#1B1C27"></path>
  <path d="M125.4 62.7V61.8V53.8V53.1H124.2C124.6 52.4 124.9 51.7 124.9 50.8C124.9 49.4 124.2 48.1 123.1 47.3C122.1 46.6 120.6 46.6 119.6 47.3C118.5 48.1 117.8 49.3 117.8 50.8C117.8 51.6 118.1 52.4 118.5 53.1H117V62.6H125.4V62.7Z" fill="url(#paint15_linear)"></path>
  <path d="M101.6 79H83.5V32.2H98.2V29.5H101.6V79ZM84 78.5H101.1V29.9H98.7V32.6H84V78.5Z" fill="#1B1C27"></path>
  <path d="M83.7 76.1H98.4V37.9H83.7V76.1ZM86.7 73.6V54.2C86.7 54.2 86.9 54.2 87 54.2C87.2 54.2 87.3 54.1 87.3 53.9C87.3 53.7 87.2 53.6 87 53.6C86.9 53.6 86.7 53.6 86.7 53.6C86.2 53.5 85.8 53.1 85.8 52.5C85.8 52 86.2 51.6 86.7 51.4V50.1H87.4C86.6 49.4 86 48 86 46.8C86 43.7 88.2 41.1 91.1 40.6C94 41.1 96.2 43.7 96.2 46.8C96.2 48 95.6 49.4 94.8 50.1H95.5V51.4C96 51.5 96.4 51.9 96.4 52.5C96.4 53 96 53.4 95.5 53.6C95.5 53.6 95.3 53.6 95.2 53.6C95 53.6 94.9 53.7 94.9 53.9C94.9 54.1 95 54.2 95.2 54.2C95.3 54.2 95.5 54.2 95.5 54.2V73.6H86.7Z" fill="white"></path>
  <path d="M98.6 76.3H83.6V37.8H98.6V76.3ZM83.9 75.9H98.2V38.1H83.9V75.9ZM95.6 73.8H86.5V54H86.9C87 54 87.1 53.9 87.1 53.9C87.1 53.9 87 53.8 86.9 53.8C86.8 53.8 86.6 53.8 86.6 53.8C86 53.7 85.6 53.1 85.6 52.6C85.6 52.1 86 51.6 86.5 51.4V50H86.9C86.2 49.2 85.8 48 85.8 46.8C85.8 43.6 88 41 91.1 40.5C94.1 41 96.3 43.7 96.3 46.8C96.3 47.9 95.8 49.2 95.2 50H95.6V51.3C96.1 51.5 96.5 52 96.5 52.5C96.5 53.1 96.1 53.6 95.5 53.7C95.5 53.7 95.3 53.7 95.2 53.7C95.1 53.7 95 53.8 95 53.8C95 53.8 95.1 53.9 95.2 53.9H95.7V73.8H95.6ZM86.9 73.5H95.3V54.4H95.2C94.9 54.4 94.7 54.2 94.7 53.9C94.7 53.6 94.9 53.4 95.2 53.4C95.3 53.4 95.4 53.4 95.5 53.4C95.9 53.3 96.2 52.9 96.2 52.5C96.2 52.1 95.9 51.7 95.5 51.6H95.4V50.4H94.5L94.8 50.1C95.6 49.4 96.1 48 96.1 46.9C96.1 43.9 94 41.4 91.2 40.9C88.3 41.4 86.3 43.9 86.3 46.9C86.3 48.1 86.8 49.4 87.6 50.1L87.9 50.4H87V51.6H86.9C86.5 51.7 86.2 52.1 86.2 52.5C86.2 52.9 86.5 53.3 86.9 53.4H87.1C87.4 53.4 87.6 53.6 87.6 53.9C87.6 54.2 87.4 54.4 87.1 54.4H87V73.5H86.9Z" fill="#1B1C27"></path>
  <path d="M113.8 53.2C114.2 52.5 114.5 51.8 114.5 50.9C114.5 49.5 113.8 48.2 112.7 47.4C111.7 46.7 110.2 46.7 109.2 47.4C108.1 48.2 107.4 49.4 107.4 50.9C107.4 51.7 107.7 52.5 108.1 53.2H107V62.7H115.3V53.2H113.8Z" fill="url(#paint16_linear)"></path>
  <path d="M128.3 72H104V69.5H105.6V44.7H115.8V51.4H116.5V44.7H126.8V69.5H128.3V72ZM104.3 71.7H128V69.9H126.5V45.1H116.9V51.8H115.5V45.1H106V69.9H104.4V71.7H104.3ZM125.6 69.9H117V53H118.3C117.9 52.3 117.7 51.6 117.7 50.9C117.7 49.5 118.4 48.1 119.6 47.3C120.7 46.5 122.2 46.5 123.3 47.3C124.5 48.1 125.2 49.5 125.2 50.9C125.2 51.6 125 52.3 124.6 53H125.6V53.8V69.9ZM117.3 69.6H125.3V53.4H124L124.2 53.1C124.7 52.4 124.9 51.6 124.9 50.9C124.9 49.6 124.3 48.3 123.2 47.6C122.2 46.9 120.9 46.9 119.9 47.6C118.8 48.4 118.2 49.6 118.2 50.9C118.2 51.6 118.4 52.3 118.9 53.1L119.1 53.4H117.5V69.6H117.3ZM115.5 69.9H106.9V53H107.9C107.5 52.3 107.3 51.6 107.3 50.9C107.3 49.5 108 48.1 109.2 47.3C110.3 46.5 111.8 46.5 112.9 47.3C114.1 48.1 114.8 49.5 114.8 50.9C114.8 51.6 114.6 52.3 114.2 53H115.5V69.9ZM107.2 69.6H115.1V53.3H113.5L113.7 53C114.2 52.3 114.4 51.5 114.4 50.8C114.4 49.5 113.8 48.2 112.7 47.5C111.7 46.8 110.4 46.8 109.4 47.5C108.3 48.3 107.7 49.5 107.7 50.8C107.7 51.5 107.9 52.2 108.4 53L108.6 53.3H107.3V69.6H107.2Z" fill="#1B1C27"></path>
  <path d="M83.8 29.7H51.5V80.8H83.8V29.7Z" fill="url(#paint17_linear)"></path>
  <path d="M84 81H51.2V29.4H84V81ZM51.7 80.5H83.5V29.9H51.7V80.5Z" fill="#1B1C27"></path>
  <path d="M78.3999 38.4001V35.5001H56.7999V38.4001H55.2999V82.4001H79.8999V38.4001H78.3999Z" fill="url(#paint18_linear)"></path>
  <path d="M80.1 82.5H55.1V38.2001H56.6V35.3H78.5V38.2001H80V82.5H80.1ZM55.4 82.2H79.7V38.5H78.2V35.6H57V38.5H55.5V82.2H55.4Z" fill="#1B1C27"></path>
  <path d="M76.8 80.7V56.7H76C77.2 54.9 78.2 52.7 78.2 50.3C78.2 44.4 73.6 39.5 67.6 38.6C61.6 39.5 57 44.4 57 50.3C57 52.6 57.9 54.8 59.2 56.7H58.4V80.7" fill="url(#paint19_linear)"></path>
  <path d="M76.8 80.7V56.7H76C77.1 55 78 53.2 78.1 51.2C78.2 50.2 78.1 49.2 77.9 48.2C77.7 47.2 77.4 46.3 76.9 45.4C76 43.6 74.6 42.1 73 40.9C71.4 39.7 69.4 39 67.5 38.7C65.5 39 63.6 39.7 62 40.9C60.4 42 59 43.6 58.1 45.4C57.6 46.3 57.3 47.3 57.1 48.2C56.9 49.2 56.8 50.2 56.9 51.2C57.1 53.2 57.9 55.1 59 56.7H58.2V80.7L58.1 68.7L58 56.7V56.5H58.2H59V56.8C57.9 55.1 57 53.2 56.8 51.1C56.7 50.1 56.8 49 57 48C57.2 47 57.5 46 58 45.1C58.9 43.3 60.3 41.7 62 40.5C63.7 39.3 65.6 38.6 67.7 38.2C69.7 38.5 71.7 39.3 73.4 40.5C75.1 41.7 76.5 43.3 77.4 45.1C77.9 46 78.2 47 78.4 48C78.6 49 78.7 50 78.6 51.1C78.4 53.2 77.5 55.1 76.4 56.8L76 56.5H76.8H77V56.7L76.9 68.7L76.8 80.7Z" fill="#1B1C27"></path>
  <path d="M74.1999 71.8V57.5H73.5999C74.4999 56.2 75.1999 54.6 75.1999 53C75.1999 48.8 71.8999 45.3 67.5999 44.6C63.2999 45.3 59.9999 48.8 59.9999 53C59.9999 54.7 60.6999 56.2 61.5999 57.5H60.9999V71.7" fill="url(#paint20_linear)"></path>
  <path d="M74.1999 71.8L74.0999 64.7V57.6L74.1999 57.7H73.5999H73.2999L73.4999 57.5C74.2999 56.3 74.8999 55 74.9999 53.6C75.0999 52.2 74.7999 50.8 74.1999 49.5C73.5999 48.3 72.5999 47.2 71.4999 46.4C70.3999 45.6 68.9999 45.1 67.5999 44.9H67.6999C66.2999 45.1 64.9999 45.6 63.7999 46.4C62.5999 47.2 61.6999 48.3 61.0999 49.5C60.4999 50.7 60.1999 52.2 60.2999 53.6C60.3999 55 60.9999 56.3 61.7999 57.5L61.9999 57.7H61.6999H61.1999L61.2999 57.6V64.7L60.9999 71.8V57.6H61.4999C60.6999 56.4 60.0999 55.1 59.9999 53.6C59.8999 52.2 60.1999 50.7 60.7999 49.4C61.3999 48.1 62.3999 47 63.5999 46.2C64.7999 45.4 66.0999 44.9 67.5999 44.6C68.9999 44.8 70.3999 45.3 71.5999 46.2C72.7999 47 73.6999 48.1 74.3999 49.4C74.9999 50.7 75.2999 52.1 75.1999 53.6C75.0999 55 74.4999 56.4 73.6999 57.6H74.2999L74.1999 71.8Z" fill="#1B1C27"></path>
  <path d="M67.5999 38.5H67.3999V48.3H67.5999V38.5Z" fill="#1B1C27"></path>
  <path d="M72.1 59.8C72.1 57.3 70.2 55.3 67.6 54.9C65.1 55.3 63.1 57.3 63.1 59.8V70.7H72.1V59.8Z" fill="url(#paint21_linear)"></path>
  <path d="M72 70.7V59.8C72 57.4 70.2 55.4 67.6 55C65.1 55.4 63.2 57.4 63.2 59.8V70.7H63V59.8C63 57.3 64.9 55.1 67.6 54.7C70.3 55.1 72.2 57.2 72.2 59.8V70.7H72Z" fill="#1B1C27"></path>
  <path d="M68.6999 49C68.4999 48.6 67.9999 48.3 67.4999 48.3C66.9999 48.3 66.5999 48.6 66.2999 49H68.6999Z" fill="#1B1C27"></path>
  <path d="M68 49.0001H67.1V51.7001H68V49.0001Z" fill="#1B1C27"></path>
  <path d="M68.6999 49.0001H67.9999V51.7001H68.6999V49.0001Z" fill="#1B1C27"></path>
  <path d="M67.0999 49.0001H66.3999V51.7001H67.0999V49.0001Z" fill="#1B1C27"></path>
  <path d="M80 80.8H55.3V82.4H80V80.8Z" fill="white"></path>
  <path d="M80.2 82.6H55V80.5H80.2V82.6ZM55.5 82.1H79.7V81H55.5V82.1Z" fill="#1B1C27"></path>
  <path d="M60.5 78.1H74.6L73.6 71.7H61.6L60.5 78.1Z" fill="url(#paint22_linear)"></path>
  <path d="M7 69.7H31V39.8H7V69.7Z" fill="url(#paint23_linear)"></path>
  <path d="M5.69995 39.8H32.0999L30.1 38.1H7.79995L5.69995 39.8Z" fill="url(#paint24_linear)"></path>
  <path d="M9.79993 62.7V61.8V53.8V53.1H10.9999C10.5999 52.4 10.2999 51.7 10.2999 50.8C10.2999 49.4 10.9999 48.1 12.0999 47.3C13.0999 46.6 14.5999 46.6 15.5999 47.3C16.6999 48.1 17.3999 49.3 17.3999 50.8C17.3999 51.6 17.0999 52.4 16.6999 53.1H17.9999V62.6H9.79993V62.7Z" fill="url(#paint25_linear)"></path>
  <path d="M21.4 53.2001C21 52.5001 20.7 51.8001 20.7 50.9001C20.7 49.5001 21.4 48.2001 22.5 47.4001C23.5 46.7001 25 46.7001 26 47.4001C27.1 48.2001 27.8 49.4001 27.8 50.9001C27.8 51.7001 27.5 52.5001 27.1 53.2001H28.3V62.7001H20V53.2001H21.4Z" fill="url(#paint26_linear)"></path>
  <path d="M7 69.7V71.8H31V69.7H29.4V44.9H19.6V51.6H18.5V44.9H8.5V69.7H7ZM19.9 69.7V53.2H21.4C21 52.5 20.7 51.8 20.7 50.9C20.7 49.5 21.4 48.2 22.5 47.4C23.5 46.7 25 46.7 26 47.4C27.1 48.2 27.8 49.4 27.8 50.9C27.8 51.7 27.5 52.5 27.1 53.2H28.3V69.8H19.9V69.7ZM9.7 69.7V53.8V53.1H10.9C10.5 52.4 10.2 51.7 10.2 50.8C10.2 49.4 10.9 48.1 12 47.3C13 46.6 14.5 46.6 15.5 47.3C16.6 48.1 17.3 49.3 17.3 50.8C17.3 51.6 17 52.4 16.6 53.1H18.1V69.7H9.7Z" fill="url(#paint27_linear)"></path>
  <path d="M33.9 34.4L0.599976 34.1L33.9 33.9V34.4Z" fill="#1B1C27"></path>
  <path d="M0.599976 71.9L33.9 71.6V72.1L0.599976 71.9Z" fill="#1B1C27"></path>
  <path d="M31.2 69.9H6.90002V39.6H31.2V69.9ZM7.20002 69.6H30.8V39.9H7.20002V69.6Z" fill="#1B1C27"></path>
  <path d="M5.69995 39.8H32.0999L30.1 38.1H7.79995L5.69995 39.8Z" fill="#1B1C27"></path>
  <path d="M9.79993 62.7V61.8V53.8V53.1H10.9999C10.5999 52.4 10.2999 51.7 10.2999 50.8C10.2999 49.4 10.9999 48.1 12.0999 47.3C13.0999 46.6 14.5999 46.6 15.5999 47.3C16.6999 48.1 17.3999 49.3 17.3999 50.8C17.3999 51.6 17.0999 52.4 16.6999 53.1H17.9999V62.6H9.79993V62.7Z" fill="url(#paint28_linear)"></path>
  <path d="M51.7 79H33.6V29.4H37V32.1H51.7V79ZM34.1 78.5H51.2V32.7H36.5V30H34.1V78.5Z" fill="#1B1C27"></path>
  <path d="M51.4999 37.9H36.7999V76.1H51.4999V37.9ZM39.6999 73.6V54.2C39.6999 54.2 39.8999 54.2 39.9999 54.2C40.1999 54.2 40.2999 54.1 40.2999 53.9C40.2999 53.7 40.1999 53.6 39.9999 53.6C39.8999 53.6 39.6999 53.6 39.6999 53.6C39.1999 53.5 38.7999 53.1 38.7999 52.5C38.7999 52 39.1999 51.6 39.6999 51.4V50.1H40.3999C39.5999 49.4 38.9999 48 38.9999 46.8C38.9999 43.7 41.1999 41.1 44.0999 40.6C46.9999 41.1 49.1999 43.7 49.1999 46.8C49.1999 48 48.5999 49.4 47.7999 50.1H48.4999V51.4C48.9999 51.5 49.3999 51.9 49.3999 52.5C49.3999 53 48.9999 53.4 48.4999 53.6C48.4999 53.6 48.2999 53.6 48.1999 53.6C47.9999 53.6 47.8999 53.7 47.8999 53.9C47.8999 54.1 47.9999 54.2 48.1999 54.2C48.2999 54.2 48.3999 54.2 48.4999 54.2V73.6H39.6999Z" fill="white"></path>
  <path d="M51.6 76.3001H36.6V37.8H51.6V76.3001ZM37 75.9001H51.3V38.1H37V75.9001ZM48.7 73.8001H39.6V54H40C40.1 54 40.2 53.9001 40.2 53.9001C40.2 53.9001 40.1 53.8 40 53.8C39.9 53.8 39.7 53.8 39.7 53.8C39.1 53.7 38.7 53.1 38.7 52.6C38.7 52.1 39.1 51.6001 39.6 51.4001V50H40C39.3 49.2 38.9 48 38.9 46.8C38.9 43.6 41.1 41 44.1 40.5C47.1 41 49.4 43.7 49.4 46.8C49.4 47.9 48.9 49.2 48.3 50H48.7V51.3C49.2 51.5 49.6 52 49.6 52.5C49.6 53.1 49.2 53.6 48.6 53.7001C48.6 53.7001 48.4 53.7001 48.3 53.7001C48.2 53.7001 48.1 53.8 48.1 53.8C48.1 53.8 48.2 53.9001 48.3 53.9001H48.7V73.8001ZM39.9 73.5H48.3V54.4001H48.2C47.9 54.4001 47.7 54.2001 47.7 53.9001C47.7 53.6001 47.9 53.4001 48.2 53.4001C48.3 53.4001 48.4 53.4001 48.5 53.4001C48.9 53.3001 49.2 52.9 49.2 52.5C49.2 52.1 48.9 51.7 48.5 51.6H48.4V50.4001H47.5L47.8 50.1C48.6 49.4 49.1 48.0001 49.1 46.9001C49.1 43.9001 47 41.4001 44.2 40.9001C41.3 41.4001 39.3 43.9001 39.3 46.9001C39.3 48.1001 39.8 49.4 40.6 50.1L40.9 50.4001H40V51.6H39.9C39.5 51.7 39.2 52.1 39.2 52.5C39.2 52.9 39.5 53.3001 39.9 53.4001H40.1C40.4 53.4001 40.6 53.6001 40.6 53.9001C40.6 54.2001 40.4 54.4001 40.1 54.4001H40V73.5H39.9Z" fill="#1B1C27"></path>
  <path d="M21.4 53.2C21 52.5 20.7 51.8 20.7 50.9C20.7 49.5 21.4 48.2 22.5 47.4C23.5 46.7 25 46.7 26 47.4C27.1 48.2 27.8 49.4 27.8 50.9C27.8 51.7 27.5 52.5 27.1 53.2H28.3V62.7H20V53.2H21.4Z" fill="url(#paint29_linear)"></path>
  <path d="M31.2 72H6.90002V69.5H8.40002V44.7H18.7V51.4H19.4V44.7H29.6V69.5H31.2V72ZM7.20002 71.7H30.8V69.9H29.2V45.1H19.7V51.8H18.3V45.1H8.70002V69.9H7.20002V71.7ZM28.3 69.9H19.7V53H21C20.6 52.3 20.4 51.6 20.4 50.9C20.4 49.5 21.1 48.1 22.3 47.3C23.4 46.5 24.9 46.5 26 47.3C27.2 48.1 27.9 49.5 27.9 50.9C27.9 51.6 27.7 52.3 27.3 53H28.3V69.9ZM20.1 69.6H28V53.3H26.7L26.9 53C27.4 52.3 27.6 51.5 27.6 50.8C27.6 49.5 27 48.2 25.9 47.5C24.9 46.8 23.6 46.8 22.6 47.5C21.5 48.3 20.9 49.5 20.9 50.8C20.9 51.5 21.1 52.2 21.6 53L21.8 53.3H20.2V69.6H20.1ZM18.2 69.9H9.60002V69.7V53H10.6C10.2 52.3 10 51.6 10 50.9C10 49.5 10.7 48.1 11.9 47.3C13 46.5 14.5 46.5 15.6 47.3C16.8 48.1 17.5 49.5 17.5 50.9C17.5 51.6 17.3 52.3 16.9 53H18.2V69.9ZM9.90002 69.6H17.9V53.3H16.3L16.5 53C17 52.3 17.2 51.5 17.2 50.8C17.2 49.5 16.6 48.2 15.5 47.5C14.5 46.8 13.2 46.8 12.2 47.5C11.1 48.3 10.5 49.5 10.5 50.8C10.5 51.5 10.7 52.2 11.2 53L11.4 53.3H10V53.8L9.90002 69.6Z" fill="#1B1C27"></path>
  <path d="M73.1 70.6H62.1V70.8H73.1V70.6Z" fill="#1B1C27"></path>
  <path d="M73.7 24.8V15.9C73.7 15.9 72.9 12.8 67.7 13.8V22.4C67.7 22.4 71.5 21.8 73.7 24.8Z" fill="url(#paint30_linear)"></path>
  <path d="M67.7 29.5V12.8" stroke="#1D1D1B" stroke-width="0.25" stroke-miterlimit="10" stroke-linecap="round" stroke-linejoin="round"></path>
  <path d="M73.4 15.4C72.1 13 67.7 13.8 67.7 13.8V22.4C67.7 22.4 71.2 21.9 72.9 24C74.7 26.1 77.5 26.4 77.5 26.4V18.4C77.5 18.4 74.7 17.8 73.4 15.4Z" stroke="#1D1D1B" stroke-width="0.25" stroke-miterlimit="10" stroke-linecap="round" stroke-linejoin="round"></path>
  <path d="M73.9999 18.6C74.1999 18.7 74.3999 18.8 74.5999 19L74.8999 19.3L74.5999 18.9C74.2999 18.4 73.8999 18.2 73.4999 18C72.5999 17.7 71.8999 18.4 71.7999 19.5C71.6999 20.6 72.3999 21.8 73.3999 22.1C73.8999 22.2 74.2999 22.2 74.5999 21.9L74.8999 21.6L74.5999 21.7C74.3999 21.8 74.0999 21.8 73.8999 21.7C73.0999 21.5 72.5999 20.6 72.5999 19.7C72.6999 18.8 73.2999 18.3 73.9999 18.6Z" fill="#A31E22"></path>
  <path d="M74.7 19.3L74.3 19.8L73.7 19.4L74.1 20.1L73.7 20.6H74.3L74.7 21.3V20.5L75.4 20.4L74.7 20V19.3Z" fill="#A31E22"></path>
  <defs>
  <radialGradient id="paint0_radial" cx="0" cy="0" r="1" gradientUnits="userSpaceOnUse" gradientTransform="translate(69.7477 69.1776) scale(63.977 18.4574)">
  <stop stop-color="#1B1C27"></stop>
  <stop offset="0.00240799" stop-color="#1F202A"></stop>
  <stop offset="0.0244653" stop-color="#3F3E46"></stop>
  <stop offset="0.0489057" stop-color="#605C64"></stop>
  <stop offset="0.0758111" stop-color="#817D84"></stop>
  <stop offset="0.1056" stop-color="#A19EA3"></stop>
  <stop offset="0.1392" stop-color="#BEBBBF"></stop>
  <stop offset="0.1784" stop-color="#D7D5D7"></stop>
  <stop offset="0.227" stop-color="#EAE9EA"></stop>
  <stop offset="0.295" stop-color="#F9F8F9"></stop>
  <stop offset="0.484" stop-color="white"></stop>
  <stop offset="0.9463" stop-color="white" stop-opacity="0"></stop>
  </radialGradient>
  <radialGradient id="paint1_radial" cx="0" cy="0" r="1" gradientUnits="userSpaceOnUse" gradientTransform="translate(67.8113 73.4807) scale(82.1807 14.9733)">
  <stop offset="0.2708" stop-color="#1B1C27"></stop>
  <stop offset="0.6788" stop-color="#1B1C27" stop-opacity="0.1"></stop>
  <stop offset="0.8181" stop-color="white" stop-opacity="0"></stop>
  </radialGradient>
  <linearGradient id="paint2_linear" x1="36.7632" y1="53.0369" x2="0.265475" y2="53.0369" gradientUnits="userSpaceOnUse">
  <stop stop-color="#1B1C27"></stop>
  <stop offset="0.00245237" stop-color="#1F202A"></stop>
  <stop offset="0.0249162" stop-color="#3F3E46"></stop>
  <stop offset="0.0498071" stop-color="#605C64"></stop>
  <stop offset="0.0772083" stop-color="#817D84"></stop>
  <stop offset="0.1075" stop-color="#A19EA3"></stop>
  <stop offset="0.1417" stop-color="#BEBBBF"></stop>
  <stop offset="0.1817" stop-color="#D7D5D7"></stop>
  <stop offset="0.2311" stop-color="#EAE9EA"></stop>
  <stop offset="0.3005" stop-color="#F9F8F9"></stop>
  <stop offset="0.4929" stop-color="white"></stop>
  <stop offset="0.9463" stop-color="white" stop-opacity="0"></stop>
  </linearGradient>
  <linearGradient id="paint3_linear" x1="98.4155" y1="53.0369" x2="134.913" y2="53.0369" gradientUnits="userSpaceOnUse">
  <stop stop-color="#1B1C27"></stop>
  <stop offset="0.00245237" stop-color="#1F202A"></stop>
  <stop offset="0.0249162" stop-color="#3F3E46"></stop>
  <stop offset="0.0498071" stop-color="#605C64"></stop>
  <stop offset="0.0772083" stop-color="#817D84"></stop>
  <stop offset="0.1075" stop-color="#A19EA3"></stop>
  <stop offset="0.1417" stop-color="#BEBBBF"></stop>
  <stop offset="0.1817" stop-color="#D7D5D7"></stop>
  <stop offset="0.2311" stop-color="#EAE9EA"></stop>
  <stop offset="0.3005" stop-color="#F9F8F9"></stop>
  <stop offset="0.4929" stop-color="white"></stop>
  <stop offset="0.9463" stop-color="white" stop-opacity="0"></stop>
  </linearGradient>
  <linearGradient id="paint4_linear" x1="89.8493" y1="27.0342" x2="92.0569" y2="49.4513" gradientUnits="userSpaceOnUse">
  <stop offset="0.038498" stop-color="#1B1C27"></stop>
  <stop offset="0.0826531" stop-color="#313039"></stop>
  <stop offset="0.1908" stop-color="#656269"></stop>
  <stop offset="0.2898" stop-color="#9B979D"></stop>
  <stop offset="0.3763" stop-color="#C9C7CA"></stop>
  <stop offset="0.4469" stop-color="#ECEAEB"></stop>
  <stop offset="0.4929" stop-color="white"></stop>
  </linearGradient>
  <linearGradient id="paint5_linear" x1="45.3294" y1="27.0342" x2="43.1218" y2="49.4513" gradientUnits="userSpaceOnUse">
  <stop offset="0.038498" stop-color="#1B1C27"></stop>
  <stop offset="0.0826531" stop-color="#313039"></stop>
  <stop offset="0.1908" stop-color="#656269"></stop>
  <stop offset="0.2898" stop-color="#9B979D"></stop>
  <stop offset="0.3763" stop-color="#C9C7CA"></stop>
  <stop offset="0.4469" stop-color="#ECEAEB"></stop>
  <stop offset="0.4929" stop-color="white"></stop>
  </linearGradient>
  <linearGradient id="paint6_linear" x1="91.1853" y1="38.7776" x2="90.9063" y2="69.1616" gradientUnits="userSpaceOnUse">
  <stop offset="0.0397579" stop-color="#1B1C27"></stop>
  <stop offset="0.3507" stop-color="#DAD8DA" stop-opacity="0.2716"></stop>
  <stop offset="0.3813" stop-color="white" stop-opacity="0.2"></stop>
  </linearGradient>
  <linearGradient id="paint7_linear" x1="43.9931" y1="38.7776" x2="44.2721" y2="69.1616" gradientUnits="userSpaceOnUse">
  <stop offset="0.0397579" stop-color="#1B1C27"></stop>
  <stop offset="0.3507" stop-color="#DAD8DA" stop-opacity="0.2716"></stop>
  <stop offset="0.3813" stop-color="white" stop-opacity="0.2"></stop>
  </linearGradient>
  <linearGradient id="paint8_linear" x1="87.9106" y1="45.9726" x2="88.1303" y2="69.9011" gradientUnits="userSpaceOnUse">
  <stop offset="0.0352262" stop-color="#1B1C27"></stop>
  <stop offset="0.7196" stop-color="#1B1C27" stop-opacity="0.1"></stop>
  </linearGradient>
  <linearGradient id="paint9_linear" x1="47.0609" y1="45.9726" x2="46.8411" y2="69.9011" gradientUnits="userSpaceOnUse">
  <stop offset="0.0352262" stop-color="#1B1C27"></stop>
  <stop offset="0.7196" stop-color="#1B1C27" stop-opacity="0.1"></stop>
  </linearGradient>
  <linearGradient id="paint10_linear" x1="116.282" y1="68.898" x2="115.976" y2="35.7525" gradientUnits="userSpaceOnUse">
  <stop offset="0.2429" stop-color="white"></stop>
  <stop offset="0.5177" stop-color="#F9F8F9" stop-opacity="0.9297"></stop>
  <stop offset="0.6167" stop-color="#EAE9EA" stop-opacity="0.9044"></stop>
  <stop offset="0.6872" stop-color="#D7D5D7" stop-opacity="0.8864"></stop>
  <stop offset="0.7443" stop-color="#BEBBBF" stop-opacity="0.8718"></stop>
  <stop offset="0.7932" stop-color="#A19EA3" stop-opacity="0.8593"></stop>
  <stop offset="0.8365" stop-color="#817D84" stop-opacity="0.8482"></stop>
  <stop offset="0.8756" stop-color="#605C64" stop-opacity="0.8382"></stop>
  <stop offset="0.9111" stop-color="#3F3E46" stop-opacity="0.8291"></stop>
  <stop offset="0.9432" stop-color="#1F202A" stop-opacity="0.8209"></stop>
  <stop offset="0.9467" stop-color="#1B1C27" stop-opacity="0.82"></stop>
  </linearGradient>
  <linearGradient id="paint11_linear" x1="116.045" y1="28.2269" x2="116.26" y2="39.5157" gradientUnits="userSpaceOnUse">
  <stop stop-color="#8A9298" stop-opacity="0.5"></stop>
  <stop offset="0.4156" stop-color="#B7BABE" stop-opacity="0.45"></stop>
 <stop offset="0.5189" stop-color="#B0B4B8" stop-opacity="0.5535"></stop>
  <stop offset="0.6358" stop-color="#A1A5AA" stop-opacity="0.6705"></stop>
  <stop offset="0.7592" stop-color="#8A8F96" stop-opacity="0.7941"></stop>
  <stop offset="0.8864" stop-color="#6E757D" stop-opacity="0.9215"></stop>
  <stop offset="0.9648" stop-color="#5B646D"></stop>
  </linearGradient>
  <linearGradient id="paint12_linear" x1="121.701" y1="31.2914" x2="121.215" y2="61.9154" gradientUnits="userSpaceOnUse">
  <stop stop-color="#B7BABE" stop-opacity="0.4517"></stop>
  <stop offset="0.1038" stop-color="#AFB3B7" stop-opacity="0.5003"></stop>
  <stop offset="0.2213" stop-color="#A0A3A8" stop-opacity="0.5554"></stop>
  <stop offset="0.3454" stop-color="#898B91" stop-opacity="0.6136"></stop>
  <stop offset="0.4743" stop-color="#6C6C74" stop-opacity="0.6739"></stop>
  <stop offset="0.6067" stop-color="#4B4B53" stop-opacity="0.736"></stop>
  <stop offset="0.7403" stop-color="#282932" stop-opacity="0.7986"></stop>
  <stop offset="0.7859" stop-color="#1B1C27" stop-opacity="0.82"></stop>
  <stop offset="0.9613" stop-color="#1B1C27"></stop>
  </linearGradient>
  <linearGradient id="paint13_linear" x1="111.58" y1="31.3006" x2="111.094" y2="61.9156" gradientUnits="userSpaceOnUse">
  <stop stop-color="#B7BABE" stop-opacity="0.4517"></stop>
  <stop offset="0.1038" stop-color="#AFB3B7" stop-opacity="0.5003"></stop>
  <stop offset="0.2213" stop-color="#A0A3A8" stop-opacity="0.5554"></stop>
  <stop offset="0.3454" stop-color="#898B91" stop-opacity="0.6136"></stop>
  <stop offset="0.4743" stop-color="#6C6C74" stop-opacity="0.6739"></stop>
  <stop offset="0.6067" stop-color="#4B4B53" stop-opacity="0.736"></stop>
  <stop offset="0.7403" stop-color="#282932" stop-opacity="0.7986"></stop>
  <stop offset="0.7859" stop-color="#1B1C27" stop-opacity="0.82"></stop>
  <stop offset="0.9613" stop-color="#1B1C27"></stop>
  </linearGradient>
  <linearGradient id="paint14_linear" x1="103.437" y1="58.5753" x2="128.4" y2="58.2286" gradientUnits="userSpaceOnUse">
  <stop offset="0.0844455" stop-color="#E5E6E7"></stop>
  <stop offset="0.2597" stop-color="#F2F2F2"></stop>
  <stop offset="0.4876" stop-color="#FBFBFB"></stop>
  <stop offset="0.9384" stop-color="white"></stop>
  </linearGradient>
  <linearGradient id="paint15_linear" x1="121.701" y1="31.2914" x2="121.215" y2="61.9154" gradientUnits="userSpaceOnUse">
  <stop stop-color="#B7BABE" stop-opacity="0.4517"></stop>
  <stop offset="0.1038" stop-color="#AFB3B7" stop-opacity="0.5003"></stop>
  <stop offset="0.2213" stop-color="#A0A3A8" stop-opacity="0.5554"></stop>
  <stop offset="0.3454" stop-color="#898B91" stop-opacity="0.6136"></stop>
  <stop offset="0.4743" stop-color="#6C6C74" stop-opacity="0.6739"></stop>
  <stop offset="0.6067" stop-color="#4B4B53" stop-opacity="0.736"></stop>
  <stop offset="0.7403" stop-color="#282932" stop-opacity="0.7986"></stop>
  <stop offset="0.7859" stop-color="#1B1C27" stop-opacity="0.82"></stop>
  <stop offset="0.9613" stop-color="#1B1C27"></stop>
  </linearGradient>
  <linearGradient id="paint16_linear" x1="111.58" y1="31.3006" x2="111.094" y2="61.9156" gradientUnits="userSpaceOnUse">
  <stop stop-color="#B7BABE" stop-opacity="0.4517"></stop>
  <stop offset="0.1038" stop-color="#AFB3B7" stop-opacity="0.5003"></stop>
  <stop offset="0.2213" stop-color="#A0A3A8" stop-opacity="0.5554"></stop>
  <stop offset="0.3454" stop-color="#898B91" stop-opacity="0.6136"></stop>
  <stop offset="0.4743" stop-color="#6C6C74" stop-opacity="0.6739"></stop>
  <stop offset="0.6067" stop-color="#4B4B53" stop-opacity="0.736"></stop>
  <stop offset="0.7403" stop-color="#282932" stop-opacity="0.7986"></stop>
  <stop offset="0.7859" stop-color="#1B1C27" stop-opacity="0.82"></stop>
  <stop offset="0.9613" stop-color="#1B1C27"></stop>
  </linearGradient>
  <linearGradient id="paint17_linear" x1="67.603" y1="22.7467" x2="67.603" y2="43.0218" gradientUnits="userSpaceOnUse">
  <stop offset="0.038498" stop-color="#1B1C27"></stop>
  <stop offset="0.0826531" stop-color="#313039"></stop>
  <stop offset="0.1908" stop-color="#656269"></stop>
  <stop offset="0.2898" stop-color="#9B979D"></stop>
  <stop offset="0.3763" stop-color="#C9C7CA"></stop>
  <stop offset="0.4469" stop-color="#ECEAEB"></stop>
  <stop offset="0.4929" stop-color="white"></stop>
  </linearGradient>
  <linearGradient id="paint18_linear" x1="67.5893" y1="33.3998" x2="67.5893" y2="88.3244" gradientUnits="userSpaceOnUse">
  <stop stop-color="#1B1C27" stop-opacity="0.4"></stop>
  <stop offset="0.00176862" stop-color="#1F202A" stop-opacity="0.403"></stop>
  <stop offset="0.0179693" stop-color="#3F3E46" stop-opacity="0.4303"></stop>
 <stop offset="0.0359203" stop-color="#605C64" stop-opacity="0.4606"></stop>
  <stop offset="0.0556818" stop-color="#817D84" stop-opacity="0.494"></stop>
  <stop offset="0.0775416" stop-color="#A19EA3" stop-opacity="0.5309"></stop>
  <stop offset="0.1022" stop-color="#BEBBBF" stop-opacity="0.5725"></stop>
  <stop offset="0.1311" stop-color="#D7D5D7" stop-opacity="0.6212"></stop>
  <stop offset="0.1667" stop-color="#EAE9EA" stop-opacity="0.6814"></stop>
  <stop offset="0.2167" stop-color="#F9F8F9" stop-opacity="0.7658"></stop>
  <stop offset="0.3555" stop-color="white"></stop>
  </linearGradient>
  <linearGradient id="paint19_linear" x1="67.5773" y1="76.1954" x2="67.5773" y2="38.5291" gradientUnits="userSpaceOnUse">
  <stop offset="0.5324" stop-color="white"></stop>
  <stop offset="0.715" stop-color="#F9F8F9" stop-opacity="0.9141"></stop>
  <stop offset="0.7807" stop-color="#EAE9EA" stop-opacity="0.8832"></stop>
  <stop offset="0.8276" stop-color="#D7D5D7" stop-opacity="0.8611"></stop>
  <stop offset="0.8656" stop-color="#BEBBBF" stop-opacity="0.8433"></stop>
  <stop offset="0.898" stop-color="#A19EA3" stop-opacity="0.828"></stop>
  <stop offset="0.9268" stop-color="#817D84" stop-opacity="0.8145"></stop>
  <stop offset="0.9528" stop-color="#605C64" stop-opacity="0.8022"></stop>
  <stop offset="0.9764" stop-color="#3F3E46" stop-opacity="0.7911"></stop>
  <stop offset="0.9977" stop-color="#1F202A" stop-opacity="0.7811"></stop>
  <stop offset="1" stop-color="#1B1C27" stop-opacity="0.78"></stop>
  </linearGradient>
  <linearGradient id="paint20_linear" x1="67.5772" y1="42.343" x2="67.5772" y2="94.3711" gradientUnits="userSpaceOnUse">
  <stop offset="0.0404768" stop-color="#1B1C27"></stop>
  <stop offset="0.253" stop-color="#1B1C27" stop-opacity="0"></stop>
  </linearGradient>
  <linearGradient id="paint21_linear" x1="67.4634" y1="55.6298" x2="67.8029" y2="83.4639" gradientUnits="userSpaceOnUse">
  <stop offset="0.1607" stop-color="#1B1C27"></stop>
  <stop offset="0.4256" stop-color="#1B1C27" stop-opacity="0.8"></stop>
  </linearGradient>
  <linearGradient id="paint22_linear" x1="67.5564" y1="84.0876" x2="67.5564" y2="69.343" gradientUnits="userSpaceOnUse">
  <stop stop-color="#1B1C27"></stop>
  <stop offset="0.7376" stop-color="#1B1C27" stop-opacity="0.0731131"></stop>
  <stop offset="0.7958" stop-color="#1B1C27" stop-opacity="0"></stop>
  </linearGradient>
  <linearGradient id="paint23_linear" x1="18.8971" y1="68.898" x2="19.2026" y2="35.7525" gradientUnits="userSpaceOnUse">
  <stop offset="0.2429" stop-color="white"></stop>
  <stop offset="0.5177" stop-color="#F9F8F9" stop-opacity="0.9297"></stop>
  <stop offset="0.6167" stop-color="#EAE9EA" stop-opacity="0.9044"></stop>
  <stop offset="0.6872" stop-color="#D7D5D7" stop-opacity="0.8864"></stop>
  <stop offset="0.7443" stop-color="#BEBBBF" stop-opacity="0.8718"></stop>
  <stop offset="0.7932" stop-color="#A19EA3" stop-opacity="0.8593"></stop>
  <stop offset="0.8365" stop-color="#817D84" stop-opacity="0.8482"></stop>
  <stop offset="0.8756" stop-color="#605C64" stop-opacity="0.8382"></stop>
  <stop offset="0.9111" stop-color="#3F3E46" stop-opacity="0.8291"></stop>
  <stop offset="0.9432" stop-color="#1F202A" stop-opacity="0.8209"></stop>
  <stop offset="0.9467" stop-color="#1B1C27" stop-opacity="0.82"></stop>
  </linearGradient>
  <linearGradient id="paint24_linear" x1="19.1341" y1="28.2269" x2="18.919" y2="39.5157" gradientUnits="userSpaceOnUse">
  <stop stop-color="#8A9298" stop-opacity="0.5"></stop>
  <stop offset="0.4156" stop-color="#B7BABE" stop-opacity="0.45"></stop>
  <stop offset="0.5189" stop-color="#B0B4B8" stop-opacity="0.5535"></stop>
  <stop offset="0.6358" stop-color="#A1A5AA" stop-opacity="0.6705"></stop>
  <stop offset="0.7592" stop-color="#8A8F96" stop-opacity="0.7941"></stop>
  <stop offset="0.8864" stop-color="#6E757D" stop-opacity="0.9215"></stop>
  <stop offset="0.9648" stop-color="#5B646D"></stop>
  </linearGradient>
  <linearGradient id="paint25_linear" x1="13.4778" y1="31.2914" x2="13.9639" y2="61.9154" gradientUnits="userSpaceOnUse">
  <stop stop-color="#B7BABE" stop-opacity="0.4517"></stop>
  <stop offset="0.1038" stop-color="#AFB3B7" stop-opacity="0.5003"></stop>
  <stop offset="0.2213" stop-color="#A0A3A8" stop-opacity="0.5554"></stop>
  <stop offset="0.3454" stop-color="#898B91" stop-opacity="0.6136"></stop>
  <stop offset="0.4743" stop-color="#6C6C74" stop-opacity="0.6739"></stop>
  <stop offset="0.6067" stop-color="#4B4B53" stop-opacity="0.736"></stop>
  <stop offset="0.7403" stop-color="#282932" stop-opacity="0.7986"></stop>
  <stop offset="0.7859" stop-color="#1B1C27" stop-opacity="0.82"></stop>
  <stop offset="0.9613" stop-color="#1B1C27"></stop>
  </linearGradient>
  <linearGradient id="paint26_linear" x1="23.5988" y1="31.3007" x2="24.0848" y2="61.9157" gradientUnits="userSpaceOnUse">
  <stop stop-color="#B7BABE" stop-opacity="0.4517"></stop>
  <stop offset="0.1038" stop-color="#AFB3B7" stop-opacity="0.5003"></stop>
  <stop offset="0.2213" stop-color="#A0A3A8" stop-opacity="0.5554"></stop>
  <stop offset="0.3454" stop-color="#898B91" stop-opacity="0.6136"></stop>
  <stop offset="0.4743" stop-color="#6C6C74" stop-opacity="0.6739"></stop>
  <stop offset="0.6067" stop-color="#4B4B53" stop-opacity="0.736"></stop>
  <stop offset="0.7403" stop-color="#282932" stop-opacity="0.7986"></stop>
  <stop offset="0.7859" stop-color="#1B1C27" stop-opacity="0.82"></stop>
  <stop offset="0.9613" stop-color="#1B1C27"></stop>
  </linearGradient>
  <linearGradient id="paint27_linear" x1="31.742" y1="58.5753" x2="6.7789" y2="58.2286" gradientUnits="userSpaceOnUse">
  <stop offset="0.0844455" stop-color="#E5E6E7"></stop>
  <stop offset="0.2597" stop-color="#F2F2F2"></stop>
  <stop offset="0.4876" stop-color="#FBFBFB"></stop>
  <stop offset="0.9384" stop-color="white"></stop>
  </linearGradient>
  <linearGradient id="paint28_linear" x1="13.4778" y1="31.2914" x2="13.9639" y2="61.9154" gradientUnits="userSpaceOnUse">
  <stop stop-color="#B7BABE" stop-opacity="0.4517"></stop>
  <stop offset="0.1038" stop-color="#AFB3B7" stop-opacity="0.5003"></stop>
  <stop offset="0.2213" stop-color="#A0A3A8" stop-opacity="0.5554"></stop>
  <stop offset="0.3454" stop-color="#898B91" stop-opacity="0.6136"></stop>
  <stop offset="0.4743" stop-color="#6C6C74" stop-opacity="0.6739"></stop>
  <stop offset="0.6067" stop-color="#4B4B53" stop-opacity="0.736"></stop>
  <stop offset="0.7403" stop-color="#282932" stop-opacity="0.7986"></stop>
  <stop offset="0.7859" stop-color="#1B1C27" stop-opacity="0.82"></stop>
  <stop offset="0.9613" stop-color="#1B1C27"></stop>
  </linearGradient>
  <linearGradient id="paint29_linear" x1="23.5988" y1="31.3006" x2="24.0848" y2="61.9156" gradientUnits="userSpaceOnUse">
  <stop stop-color="#B7BABE" stop-opacity="0.4517"></stop>
 <stop offset="0.1038" stop-color="#AFB3B7" stop-opacity="0.5003"></stop>
  <stop offset="0.2213" stop-color="#A0A3A8" stop-opacity="0.5554"></stop>
  <stop offset="0.3454" stop-color="#898B91" stop-opacity="0.6136"></stop>
  <stop offset="0.4743" stop-color="#6C6C74" stop-opacity="0.6739"></stop>
  <stop offset="0.6067" stop-color="#4B4B53" stop-opacity="0.736"></stop>
  <stop offset="0.7403" stop-color="#282932" stop-opacity="0.7986"></stop>
  <stop offset="0.7859" stop-color="#1B1C27" stop-opacity="0.82"></stop>
  <stop offset="0.9613" stop-color="#1B1C27"></stop>
  </linearGradient>
  <linearGradient id="paint30_linear" x1="67.7132" y1="19.2052" x2="73.7322" y2="19.2052" gradientUnits="userSpaceOnUse">
  <stop stop-color="#02AE4D" stop-opacity="0.45"></stop>
  <stop offset="0.1279" stop-color="#0CA94B" stop-opacity="0.5371"></stop>
  <stop offset="0.2725" stop-color="#189E48" stop-opacity="0.6356"></stop>
  <stop offset="0.4246" stop-color="#238F44" stop-opacity="0.7392"></stop>
  <stop offset="0.5432" stop-color="#29803F" stop-opacity="0.82"></stop>
  <stop offset="0.7833" stop-color="#16643F" stop-opacity="0.9234"></stop>
  <stop offset="0.9613" stop-color="#034F3E"></stop>
  </linearGradient>
  </defs>
  </svg>